# xmcd CD database file
#
# Track frame offsets:
#	150
#	16880
#	32346
#	49835
#	62058
#	74209
#	91740
#	109136
#	128863
#	150156
#	167447
#
# Disc length: 2500 seconds
#
# Revision: 0
# Processed by: cddbd v1.5.1PL0 Copyright (c) Steve Scherf et al.
# Submitted via: CDex 1.51
#
DISCID=8309c20b
DTITLE=Kamikaze Trio - Danger Money
DYEAR=2005
DGENRE=Rock
TTITLE0=Rumblefish
TTITLE1=Prescription Pills
TTITLE2=Party
TTITLE3=Got To Get Away
TTITLE4=Sign In
TTITLE5=Coalminer's Song
TTITLE6=Enemy
TTITLE7=Like She Said It Would
TTITLE8=Get It Right
TTITLE9=Title Fight
TTITLE10=Make This Place Mine
EXTD=YEAR: 2005
EXTT0=
EXTT1=
EXTT2=
EXTT3=
EXTT4=
EXTT5=
EXTT6=
EXTT7=
EXTT8=
EXTT9=
EXTT10=
PLAYORDER=
